<svg xmlns="http://www.w3.org/2000/svg" viewBox="0 0 256 82.4"><defs><style>.cls-1{fill:#fff;}.cls-2{fill:#0f954f;}.cls-3{fill:#ec1f2e;}.cls-4{fill:#fbc8b7;}.cls-5{fill:#2d338e;}</style></defs><title>VES_Logo</title><g id="Layer_2" data-name="Layer 2"><g id="Layer_1-2" data-name="Layer 1"><path class="cls-1" d="M.77.77V39.34A41.78,41.78,0,0,0,5.71,59.52a44.44,44.44,0,0,0,10.87,13,54,54,0,0,0,15.7,9A54.15,54.15,0,0,0,48,72.53a44.33,44.33,0,0,0,10.85-13,41.9,41.9,0,0,0,4.93-20.17V.77Z"/><path class="cls-2" d="M51.85,12.15c-.24.38-.48.75-.71,1.13a3.74,3.74,0,0,0-.29,1.09,5.08,5.08,0,0,0-.17,1.17c0,.18,0,.24.24.17a4.29,4.29,0,0,0,1.14-.55c.09.2.16.4.26.6.21.42.43.83.65,1.25a2.3,2.3,0,0,0-1.23.52,7.72,7.72,0,0,0-1.27,1.08,1.71,1.71,0,0,1-.11.14c0,.08-.07.17,0,.23a.21.21,0,0,0,.22,0,3.75,3.75,0,0,1,1.24-.25.6.6,0,0,1,.58.72c0,.16-.08.32-.11.47s-.06.22,0,.28a.26.26,0,0,0,.31,0,10.86,10.86,0,0,1,2-1.13,3.35,3.35,0,0,1,1.32-.34.77.77,0,0,1,.79.54c.06.16.12.32.17.48a.87.87,0,0,1-.27,1,.35.35,0,0,0-.11.32c0,.13.13.1.22.13a4.19,4.19,0,0,0,.79,0,4.32,4.32,0,0,1,2.07.57,1.16,1.16,0,0,1,.56,1,1.74,1.74,0,0,1-.16,1,4.35,4.35,0,0,1-.37.45,3.2,3.2,0,0,1,1.09.19,1.72,1.72,0,0,1,1.18,1.92,1.55,1.55,0,0,1-.58.92,1,1,0,0,0-.33.46,1.06,1.06,0,0,1-.48.58,3.67,3.67,0,0,1-1.12.6l-.13,0c-.52.06-.67-.07-.68-.6a1.41,1.41,0,0,0-.31-.86c-.19-.26-.41-.26-.77,0a2.32,2.32,0,0,1-.81.35,1.2,1.2,0,0,1-1.35-.64,5,5,0,0,0-1-1.49c-.21-.2-.29-.21-.5,0a1.51,1.51,0,0,1-1.68.39c-.22-.07-.35-.26-.53-.39A3.39,3.39,0,0,0,50.56,25c-.06,0-.11,0-.16,0s0,.1.05.14a.69.69,0,0,1-.22,1,5,5,0,0,1-1.38.58,12.68,12.68,0,0,1,1.23.4,3.74,3.74,0,0,1,1.5,1h0a5.63,5.63,0,0,1-.49.81,1.83,1.83,0,0,1-.79.7c-.19.06-.34.21-.55.21a4.57,4.57,0,0,0-1.22-.88,1.61,1.61,0,0,0-1.69.15,1.32,1.32,0,0,0-.48,1A2.15,2.15,0,0,0,47,31.94a8.07,8.07,0,0,0,.83.7,10.82,10.82,0,0,1,1.38,1.23,2.09,2.09,0,0,1,.48,1.24,1.16,1.16,0,0,1-1.13,1.14,2.8,2.8,0,0,1-1.6-.57,11.68,11.68,0,0,1-1.26-1.07A15,15,0,0,1,44.13,33,11.56,11.56,0,0,1,43,31.22a7.94,7.94,0,0,0-1-1.29,4.3,4.3,0,0,0-1.07-.88,1.29,1.29,0,0,0-1-.2,1.9,1.9,0,0,1-.89-.1,2.66,2.66,0,0,1-1-.46.67.67,0,0,1-.29-.73c.09-.43-.12-.66-.55-.71s-1.15-.05-1.72-.12a.9.9,0,0,1-.83-.93c0-.36,0-.43-.29-.53s-.21,0-.3,0a3.52,3.52,0,0,1-2.33-.16,1,1,0,0,1-.64-1,3.76,3.76,0,0,1,.59-2.36,4.28,4.28,0,0,1,1.9-1.51A10.32,10.32,0,0,1,35,19.91a.29.29,0,0,1,.16,0,1,1,0,0,0,1.08-.53,2.89,2.89,0,0,1,.82-1.07.86.86,0,0,1,1.38.21,3.18,3.18,0,0,1,.6,1.4S39,20,39,20s-.11.21,0,.28.2,0,.31,0a.74.74,0,0,0,.29-.08.46.46,0,0,1,.47.05.76.76,0,0,0,.35.14c.27,0,.37.25.51.43s.35.65.56,1a1.45,1.45,0,0,0,1.61.54c.09,0,.06-.06.05-.12a3.7,3.7,0,0,0-2-2.68c-.14-.07-.19-.12-.12-.32a4.28,4.28,0,0,0,.37-1.66.51.51,0,0,0-.29-.49,4.87,4.87,0,0,1-1.44-1,1.15,1.15,0,0,1-.24-1.28,1.18,1.18,0,0,0-.1-1.32,1.82,1.82,0,0,0-.82-.47,2.11,2.11,0,0,1-1.37-1.46.65.65,0,0,1,.16-.62,3.72,3.72,0,0,0,.42-.47c.09-.13.09-.21,0-.32a8.25,8.25,0,0,0-1.16-.8,2.25,2.25,0,0,1-.78-.72.63.63,0,0,1,.11-.78A6.4,6.4,0,0,1,37.69,6.6a4.11,4.11,0,0,0,.9-.42c.2-.15.4-.32.62-.46a1.65,1.65,0,0,1,1.07-.3,1,1,0,0,1,.84,1,3,3,0,0,0,.26,1.1.2.2,0,0,0,.26.12,5.54,5.54,0,0,1,1.52,0,1.1,1.1,0,0,1,.89,1.1,8.52,8.52,0,0,0,.28,1.82c.06.22.17.38.43.32h.11a1.66,1.66,0,0,1,1.6,1.27,2.27,2.27,0,0,1,0,.82,2.72,2.72,0,0,0,0,1.27,1.67,1.67,0,0,0,.25.52.31.31,0,0,0,.27.14,1.24,1.24,0,0,1,.33,0,.32.32,0,0,1,.28.34,7.34,7.34,0,0,0,.15,1,3.59,3.59,0,0,0,.51-1,5.4,5.4,0,0,0,.41-2,5.59,5.59,0,0,0-.17-1,2.43,2.43,0,0,1,.94-.28q.63,0,1.26,0C51,12,51.44,12.11,51.85,12.15ZM44.54,27.88h0a.47.47,0,0,1-.06-.09,14.43,14.43,0,0,1-.7-1.9c-.09-.31-.1-.64-.17-.95A2.73,2.73,0,0,0,43,23.88a2.73,2.73,0,0,1-.5-.81.35.35,0,0,0-.28-.27,1.94,1.94,0,0,0-.76,0,.31.31,0,0,1-.35-.23,2.8,2.8,0,0,0-.76-1c-.07-.06-.13-.12-.23-.08a.63.63,0,0,1-.73-.14,2.2,2.2,0,0,0-.3-.19,2.11,2.11,0,0,1-1-1.65.29.29,0,0,0-.43-.28,1.93,1.93,0,0,0-.85.55,2,2,0,0,1-.92.57c-.42.17-.88.2-1.3.36a6.77,6.77,0,0,0-1.34.52A3.32,3.32,0,0,0,32,22.6a1.43,1.43,0,0,0,.58,1.8.19.19,0,0,0,.19,0,8.58,8.58,0,0,1,1.42-.32,1,1,0,0,1,.93.19,2.29,2.29,0,0,1,.7,1.15.5.5,0,0,0,.24.31,1.3,1.3,0,0,0,.82.19,4.81,4.81,0,0,1,.93-.09c.26,0,.51.07.77.09s.44.1.46.35a4.21,4.21,0,0,1,0,.87c0,.23,0,.48-.07.75a1.94,1.94,0,0,1,2.07.27,8.09,8.09,0,0,1,1.38,1.3,19.11,19.11,0,0,1,2.1,3.09,1.78,1.78,0,0,0,.61.8,3.26,3.26,0,0,0,.74.42c-.36-.51-.69-1-1-1.46a16.33,16.33,0,0,1-1.25-2,8.88,8.88,0,0,0-.93-1.54,2.88,2.88,0,0,0-1.21-1A18.13,18.13,0,0,1,39.81,27a1.24,1.24,0,0,1,.32-.29c.12-.07.2-.2.32-.28.41-.29.4-.45,0-.72a6,6,0,0,0-2.36-.8c-.16,0-.19-.08-.14-.22l.15-.39c.05-.13,0-.19-.11-.24-.54-.15-1.07-.3-1.6-.47-.35-.12-.77-.11-1-.53-.05-.11-.15-.19-.19-.3s-.15-.12-.08-.21a.25.25,0,0,1,.26-.09,4.64,4.64,0,0,1,.65.11,13.58,13.58,0,0,1,1.78.55c.11,0,.19,0,.16-.11s-.06-.43-.11-.64a5.1,5.1,0,0,1-.19-1c0-.09,0-.19.1-.22a.23.23,0,0,1,.25.11c0,.06.05.13.08.19a2.5,2.5,0,0,0,.29.5,14.61,14.61,0,0,0,1.11,1.36c.24.28.53.51.76.81.19-.33.32-.68.54-1a16.51,16.51,0,0,0,1.49,3.7c.2-.77.36-.92.77-1.11a11,11,0,0,0,1.39,3.48c.07-.15.12-.26.16-.37A7.94,7.94,0,0,0,45,26.35a23.26,23.26,0,0,0,0-2.64c-.06-.64,0-1.27-.11-1.91a2.3,2.3,0,0,0-.14-.81,6.65,6.65,0,0,0-1.29-1.87c-.2-.22-.4-.45-.63-.69l1.25-.13-2.52-4.13,0,0,1.66,1.41a2.32,2.32,0,0,0-.08-.22A11.57,11.57,0,0,0,42,13.4a7.91,7.91,0,0,0-1.59-1.52c-.18-.12-.38-.21-.38-.48a5,5,0,0,0-.09-.7l1.58,1.21c0-.07,0-.12,0-.15A18.54,18.54,0,0,0,40.19,10L39.4,9s-.09-.09-.06-.15.1,0,.16,0a.72.72,0,0,1,.51.14,8.55,8.55,0,0,1,2,1.87c.12.14.23.28.35.41s.12.06.13-.05.07-.44.08-.66.06-.24.23-.22.2.09.19.23,0,.29,0,.43a4.83,4.83,0,0,0,.06,1.26c.14.5.32,1,.48,1.48.1.29.21.57.32.89.11-.2.21-.36.29-.52a.35.35,0,0,1,.34-.2c.18,0,.17.17.2.28a3.43,3.43,0,0,1,.08.71,11.59,11.59,0,0,1,.12,1.31c0,.7,0,1.41,0,2.14.07-.09.13-.14.18-.21a2.84,2.84,0,0,1,.49-.55c.07-.07.17-.18.25-.14s.08.2.07.31v.05c-.11.66-.26,1.32-.43,2a2.62,2.62,0,0,0-.16,1,5.65,5.65,0,0,0,.68,2,.25.25,0,0,0,.39,0,1,1,0,0,0,.1-.17c.36-.72.78-1.41,1.17-2.11a8.63,8.63,0,0,1,1.44-1.63c.41-.42.82-.84,1.21-1.27.18-.19.36-.39.53-.59v0l-2.06,1.39c.55-2.05.92-4.08,1.35-6.13-.22.17-.46.27-.46.55a2.77,2.77,0,0,1-.11.64A20.65,20.65,0,0,1,48,17.74c-.31.65-.65,1.29-1,1.92-.17.3-.27.66-.61.84-.12.07-.24.28-.35.19s0-.31,0-.47A9.69,9.69,0,0,1,46.3,19a6.14,6.14,0,0,0,.26-1.58,2.36,2.36,0,0,0-.21-1,.65.65,0,0,0-.51-.42.38.38,0,0,1-.35-.34,11.53,11.53,0,0,1-.27-2.26c0-.37-.06-.75-.1-1.12s-.21-.39-.49-.32a2.92,2.92,0,0,0-.78.32s-.14.11-.16,0c-.08-.51-.2-1-.23-1.52s0-1,0-1.51a.61.61,0,0,0-.19-.53A1.19,1.19,0,0,1,43,8.33c-.07-.14-.18-.16-.33-.1s-.57.21-.84.34a.26.26,0,0,1-.39-.12c-.36-.51-.74-1-1.14-1.48a.67.67,0,0,0-.64-.29.93.93,0,0,1-.33,0c-.35-.05-.69-.07-.83.36,0,0-.06,0-.09.06l-1,.92c-.07.06-.17.13-.07.24.28.29.47.66.86.83a.66.66,0,0,1,.41.79c0,.19.07.4-.09.56a1.71,1.71,0,0,0-.37,1,.24.24,0,0,0,.12.28l1.4.91a2.33,2.33,0,0,1,.88,1c.1.2.16.43,0,.6a.76.76,0,0,0-.14.91c.07.18.14.36.2.54a.34.34,0,0,0,.17.2,9.64,9.64,0,0,1,1.18.83,1,1,0,0,1,.26,1.25,3.75,3.75,0,0,0-.4.74c-.19.6-.22.49.33.68a1.93,1.93,0,0,1,1,.7,7.62,7.62,0,0,1,1,1.78,10.58,10.58,0,0,1,.57,2.55,22.44,22.44,0,0,1,0,2.46C44.62,27.19,44.57,27.53,44.54,27.88Zm8.22-5.42.89.13a25.29,25.29,0,0,0,3,.53,1,1,0,0,1,.92.48c0,.1.1.17,0,.24a2.26,2.26,0,0,0-.31.23c-.18.14,0,.28,0,.41s.16,0,.21,0c.39-.16.77-.34,1.15-.52a1.69,1.69,0,0,0,.78-.78c.09-.17.17-.39,0-.55a1.27,1.27,0,0,0-.52-.29,11.7,11.7,0,0,0-2.69-.49l-1-.09a.11.11,0,0,1-.1-.12.77.77,0,0,1,.12-.53,2.67,2.67,0,0,0,.47-.84c0-.12.09-.24,0-.34s-.22-.05-.33,0c-1,.36-2.06.68-3.12,1a11,11,0,0,1-1.17.24c-.08,0-.23.08-.25-.09a.62.62,0,0,1,.14-.52,4.91,4.91,0,0,0,.33-.41,1.37,1.37,0,0,0-.51,0c-.27.09-.54.19-.82.27A4.08,4.08,0,0,0,47.62,22c-.54.71-1,1.49-1.51,2.27a4.19,4.19,0,0,0,1.41-1c.41-.51.78-1.06,1.15-1.61a.62.62,0,0,1,.48-.26c.17,0,.23,0,.23.21a3.21,3.21,0,0,1-.27.92c.39,0,.76,0,1.14,0a1,1,0,0,0,.53-.12l1.91-1a.71.71,0,0,1,.32-.1c.25,0,.31.09.2.32A5.32,5.32,0,0,1,52.76,22.46Zm-7,5a.15.15,0,0,0,.06-.05,5.87,5.87,0,0,1,1.85-1.17A4.51,4.51,0,0,1,49,25.87c.16,0,.15-.1.13-.21a7.6,7.6,0,0,1-.16-.83c0-.15-.13-.33,0-.48a1.37,1.37,0,0,1,1-.42,2.52,2.52,0,0,1,1.33.49c.52.37,1.06.72,1.58,1.08a.14.14,0,0,0,.23-.05c.12-.21.25-.42.38-.62s.07-.22.17-.22c.3,0,.6-.12.85.21a3.6,3.6,0,0,1,.93,1.89c0,.13.08.24.26.15a6.65,6.65,0,0,0,.61-.27.93.93,0,0,0,.16-1.36c-.41-.33-.83-.63-1.22-1a2.5,2.5,0,0,0-2.46-.51c-.1,0-.14.06-.16.17-.05.26-.12.51-.18.76,0,.07,0,.14-.13.05s-.38-.42-.55-.65a1.36,1.36,0,0,0-1.05-.58,4.91,4.91,0,0,0-2.08.32.66.66,0,0,0-.47.61,2.53,2.53,0,0,0,.15,1.06s.1.1,0,.15-.11,0-.17,0a1.51,1.51,0,0,0-.67,0,6.07,6.07,0,0,0-1.31.63A.9.9,0,0,0,45.71,27.45Zm11.94-1.57a.29.29,0,0,0,.16.36,6.76,6.76,0,0,1,.7.49,1.73,1.73,0,0,1,.61.62,1,1,0,0,0,.38.45.14.14,0,0,0,.19,0c.19-.13.4-.22.59-.35s.4-.19.34-.48c0,0,0-.07.06-.11s.16-.3.23-.46a.46.46,0,0,0-.13-.62.75.75,0,0,0-.33-.17,3.42,3.42,0,0,1-.84-.4.6.6,0,0,0-.31-.1,2.86,2.86,0,0,0-1.43.41C57.72,25.61,57.57,25.68,57.65,25.88Zm-11.8,2.67.21-.08A4.85,4.85,0,0,1,48.3,28a2.3,2.3,0,0,1,1.43.6c.16.15.27.36.41.52s.19.14.27,0a1,1,0,0,0-.49-1.32,4.49,4.49,0,0,0-2-.44A2.45,2.45,0,0,0,45.85,28.55Zm-.09,4a11.72,11.72,0,0,0,.8,1.06c.3.37.6.74.91,1.09a3.13,3.13,0,0,0,.8.65c.15.09.22,0,.26-.12a.41.41,0,0,0,0-.22,2.06,2.06,0,0,0-.4-.76,5.07,5.07,0,0,0-1.08-.94A10.1,10.1,0,0,0,45.76,32.53Z"/><path class="cls-3" d="M53,17c-.22-.42-.44-.83-.65-1.25-.1-.2-.17-.4-.26-.6a6.63,6.63,0,0,1,.71-2.26,3.45,3.45,0,0,1,2.32-2,4.5,4.5,0,0,1,1.16-.06c.15,0,.23,0,.18.27a4.23,4.23,0,0,0,0,2.06,1.9,1.9,0,0,0,1.49,1.3,2.85,2.85,0,0,0,1.33.06.56.56,0,0,1,.22,0,4.06,4.06,0,0,1-.46.66,5.59,5.59,0,0,1-1.89,1.6,4.93,4.93,0,0,1-3,.49,7.92,7.92,0,0,1-1-.19C53.13,17.12,53,17.1,53,17Z"/><path class="cls-3" d="M51.85,12.15c-.41,0-.81-.18-1.22-.19s-.84,0-1.26,0a2.43,2.43,0,0,0-.94.28,6.11,6.11,0,0,1-.66-.94A4.41,4.41,0,0,1,47.19,10a1.94,1.94,0,0,1,.16-1.49c.14-.26.22-.54.33-.8a3,3,0,0,0,1,.43,4.63,4.63,0,0,0,1.61.2,7,7,0,0,0,2.53-.65c.14-.07.18,0,.2.1a5,5,0,0,1-.84,4A1,1,0,0,1,51.85,12.15Z"/><path class="cls-3" d="M49.79,29.94c.21,0,.36-.15.55-.21a1.83,1.83,0,0,0,.79-.7,5.63,5.63,0,0,0,.49-.81,6.51,6.51,0,0,1,1.56-.4,2.74,2.74,0,0,1,2.24.56,2.17,2.17,0,0,1,.54.85c.13.35.12.35-.24.46A6,6,0,0,0,53.47,31a5.29,5.29,0,0,0-1.66,2.93.14.14,0,0,1,0,.07s0,.08,0,.14a3.87,3.87,0,0,1-2-2A2.91,2.91,0,0,1,49.79,29.94Z"/><path class="cls-4" d="M48.64,8.15a4.63,4.63,0,0,0,1.61.2,7,7,0,0,0,2.53-.65.24.24,0,0,1,.15,0,6.19,6.19,0,0,0-.69-2.37,2.52,2.52,0,0,0-2.66-1.65c-.79.1-1.43,1-1.76,1.77a6.35,6.35,0,0,0-.14,2.3A3,3,0,0,0,48.64,8.15Z"/><path class="cls-4" d="M60.46,10.66C60.1,10.1,59,9.94,58.17,10a4,4,0,0,0-1.74.94h0a.27.27,0,0,1,0,.18,4.23,4.23,0,0,0,0,2.06,1.9,1.9,0,0,0,1.49,1.3,2.85,2.85,0,0,0,1.33.06.56.56,0,0,1,.22,0s.31-.49.79-1.21A2.91,2.91,0,0,0,60.46,10.66Z"/><path class="cls-4" d="M57,30.56c-.64-.69-.93-1-.93-1h0c0,.06-.12.09-.31.15A6,6,0,0,0,53.47,31a5.29,5.29,0,0,0-1.66,2.93.14.14,0,0,1,0,.07s0,.08,0,.14,2.11,1.35,3.42.71a3.74,3.74,0,0,0,2-1.84A2.46,2.46,0,0,0,57,30.56Z"/><path class="cls-5" d="M0,0V39.34A42.59,42.59,0,0,0,5,59.89,45.11,45.11,0,0,0,16.09,73.14a54.35,54.35,0,0,0,16.07,9.22l.12,0,.12,0a54.35,54.35,0,0,0,16.07-9.22A45.11,45.11,0,0,0,59.53,59.89a42.59,42.59,0,0,0,5-20.55V0ZM.77,7.08a18.28,18.28,0,0,0,6.38,3.36,17.31,17.31,0,0,1,6.36,3.47,17.1,17.1,0,0,1,4.64,5.57,18.61,18.61,0,0,0,5,6A18.64,18.64,0,0,0,30,29.21a16.94,16.94,0,0,1,6.36,3.47A17,17,0,0,1,41,38.24a18.64,18.64,0,0,0,5,6A18.52,18.52,0,0,0,52.84,48a17.31,17.31,0,0,1,6.36,3.47,20.2,20.2,0,0,1,2.27,2.15c-.24.69-.5,1.38-.78,2.06A20.07,20.07,0,0,0,58,53.09a18.59,18.59,0,0,0-6.85-3.74,17,17,0,0,1-6.36-3.47,17.11,17.11,0,0,1-4.64-5.56,18.7,18.7,0,0,0-5-6,18.69,18.69,0,0,0-6.85-3.73A17.23,17.23,0,0,1,22,27.12a17.1,17.1,0,0,1-4.64-5.57,18.51,18.51,0,0,0-5-6,18.52,18.52,0,0,0-6.85-3.74A16.71,16.71,0,0,1,.77,9.58ZM.77,19a17.15,17.15,0,0,1,6.31,3.45A17.1,17.1,0,0,1,11.72,28a18.61,18.61,0,0,0,5,6,18.49,18.49,0,0,0,6.84,3.74,16.94,16.94,0,0,1,6.36,3.47,17,17,0,0,1,4.64,5.56,18.63,18.63,0,0,0,5,6,18.61,18.61,0,0,0,6.85,3.73,17.31,17.31,0,0,1,6.36,3.47,17.42,17.42,0,0,1,3.51,3.72c-.37.53-.76,1-1.16,1.57a19.28,19.28,0,0,0-3.52-3.64,18.75,18.75,0,0,0-6.85-3.74,17,17,0,0,1-6.36-3.47,17,17,0,0,1-4.64-5.56,18.51,18.51,0,0,0-5-6,18.49,18.49,0,0,0-6.84-3.74,17.23,17.23,0,0,1-6.36-3.47,17.1,17.1,0,0,1-4.64-5.57,18.61,18.61,0,0,0-5-6A18.52,18.52,0,0,0,.77,20.93Zm53,39.8A18.52,18.52,0,0,0,46.89,55a17.23,17.23,0,0,1-6.36-3.47A17.07,17.07,0,0,1,35.9,46a18.75,18.75,0,0,0-5-6,18.75,18.75,0,0,0-6.85-3.74,17,17,0,0,1-6.36-3.47,17,17,0,0,1-4.64-5.56,18.51,18.51,0,0,0-5-6,18.49,18.49,0,0,0-6.84-3.74l-.44-.15v-2c.73.31,1.42.54,2.09.77a16.94,16.94,0,0,1,6.36,3.47,17,17,0,0,1,4.64,5.57,18.72,18.72,0,0,0,5,6,18.82,18.82,0,0,0,6.85,3.74,17.11,17.11,0,0,1,6.36,3.46,17.37,17.37,0,0,1,4.64,5.57,18.58,18.58,0,0,0,5,6,18.59,18.59,0,0,0,6.85,3.74,17,17,0,0,1,6.36,3.47,17.47,17.47,0,0,1,3.35,3.48c-.34.58-.69,1.15-1.06,1.72A19.28,19.28,0,0,0,53.74,58.76ZM48,72.53a54.15,54.15,0,0,1-15.73,9.06,53.75,53.75,0,0,1-15.7-9,44.44,44.44,0,0,1-10.87-13A41.78,41.78,0,0,1,.77,39.34V22.59a18,18,0,0,1,4.17,2.66,17.25,17.25,0,0,1,4.64,5.56,18.45,18.45,0,0,0,5,6,18.59,18.59,0,0,0,6.85,3.74A17.31,17.31,0,0,1,27.78,44a17.1,17.1,0,0,1,4.64,5.57,18.61,18.61,0,0,0,5,6,18.64,18.64,0,0,0,6.84,3.74,16.94,16.94,0,0,1,6.36,3.47,17.33,17.33,0,0,1,3.5,3.69A47.32,47.32,0,0,1,48,72.53ZM59.07,59.12a20.53,20.53,0,0,0-3.18-3.2A18.9,18.9,0,0,0,49,52.18a17,17,0,0,1-6.36-3.46A17.1,17.1,0,0,1,38,43.15a18.51,18.51,0,0,0-5-6,18.52,18.52,0,0,0-6.85-3.74A17.09,17.09,0,0,1,19.83,30a17.26,17.26,0,0,1-4.64-5.57,18.66,18.66,0,0,0-5-6,18.9,18.9,0,0,0-6.85-3.74,21.48,21.48,0,0,1-2.58-1V11.41A19.48,19.48,0,0,0,5,13.28a17.09,17.09,0,0,1,6.36,3.47A17.25,17.25,0,0,1,16,22.31a18.58,18.58,0,0,0,5,6A18.59,18.59,0,0,0,27.85,32a17.16,17.16,0,0,1,6.36,3.47,17,17,0,0,1,4.64,5.57,18.61,18.61,0,0,0,5,6,18.64,18.64,0,0,0,6.84,3.74,16.94,16.94,0,0,1,6.36,3.47,18.18,18.18,0,0,1,3,2.95C59.71,57.86,59.4,58.49,59.07,59.12Zm4.72-19.78A44,44,0,0,1,62,51.92a22.83,22.83,0,0,0-1.84-1.66,18.57,18.57,0,0,0-6.84-3.74A17.34,17.34,0,0,1,47,43.05a17.17,17.17,0,0,1-4.63-5.57,18.75,18.75,0,0,0-5-6,18.75,18.75,0,0,0-6.85-3.74,17,17,0,0,1-6.36-3.47,17.11,17.11,0,0,1-4.64-5.56,18.58,18.58,0,0,0-5-6A18.59,18.59,0,0,0,7.64,9,17.23,17.23,0,0,1,1.28,5.52L.77,5.09V.77h63Z"/><path class="cls-5" d="M10.69,51.32H8.42l-3-9.13H7.53l2,6.42h0l2.06-6.42h2.07Z"/><path class="cls-5" d="M16.88,55h6.83v1.69H18.89v2h4.42v1.56H18.89v2.24h4.92v1.68H16.88Z"/><path class="cls-5" d="M30.38,74.07c0,1.22.95,1.69,2,1.69.71,0,1.78-.2,1.78-1.14s-1.38-1.14-2.71-1.51-2.73-.91-2.73-2.59c0-1.89,1.77-2.77,3.42-2.77,1.91,0,3.66.83,3.66,2.94h-2c-.06-1.08-.83-1.38-1.8-1.38-.64,0-1.38.27-1.38,1s.43.8,2.72,1.38c.68.15,2.72.6,2.72,2.66,0,1.68-1.31,2.93-3.8,2.93-2,0-3.93-1-3.89-3.25Z"/><path class="cls-5" d="M94.16,17v.87a9.33,9.33,0,0,0-2.46.32c-.38.14-.56.5-.56,1.08a2.78,2.78,0,0,0,0,.51,2.66,2.66,0,0,0,.16.51L97,33.34h-.06l4.63-12a7,7,0,0,0,.28-.81,3.85,3.85,0,0,0,.21-1.09c0-.67-.2-1.09-.6-1.25A8.79,8.79,0,0,0,99,17.85V17h7.52v.87a3.23,3.23,0,0,0-1.94.75,6,6,0,0,0-1.25,2.14L95.26,41.52h-.93l-9.1-21.17a5.74,5.74,0,0,0-1.13-1.84,2.81,2.81,0,0,0-1.8-.66V17Z"/><path class="cls-5" d="M107.12,40a5.31,5.31,0,0,0,2.15-.36,2.16,2.16,0,0,0,1.07-2.13V20.36a2.16,2.16,0,0,0-1-2.09,6.09,6.09,0,0,0-2.21-.39V17h12.35v.9a6.37,6.37,0,0,0-2.28.38,2.12,2.12,0,0,0-1,2.1V37.48a2.14,2.14,0,0,0,.83,2,4.92,4.92,0,0,0,2.48.5v.9H107.12Z"/><path class="cls-5" d="M137.73,17.35a18,18,0,0,0,2.52.82,1.31,1.31,0,0,0,1.08-.51,2.52,2.52,0,0,0,.51-1.09h1v8.26h-.9a19,19,0,0,0-2.6-4.24,7.32,7.32,0,0,0-5.62-2.87,5.19,5.19,0,0,0-5,3.07A19,19,0,0,0,127.17,29a18.71,18.71,0,0,0,.88,6.25q1.63,4.59,6.08,4.59a9.16,9.16,0,0,0,5.07-1.52,18.57,18.57,0,0,0,3.17-2.81l1.06.86a20.39,20.39,0,0,1-3.64,3.35,11.07,11.07,0,0,1-6.22,1.84,12.79,12.79,0,0,1-8.76-3.1,11.65,11.65,0,0,1-3.92-9.25,12.35,12.35,0,0,1,3.74-9.34,12.08,12.08,0,0,1,8.63-3.35A13.23,13.23,0,0,1,137.73,17.35Z"/><path class="cls-5" d="M145.34,17h21.28l0,7.13h-1c-.34-2.55-1.29-4.28-2.87-5.18a9,9,0,0,0-4-.81V36.74a3.57,3.57,0,0,0,.69,2.59,4.33,4.33,0,0,0,2.83.64v.9H149.73V40a4.16,4.16,0,0,0,2.75-.65,3.61,3.61,0,0,0,.68-2.58V18.12a9.22,9.22,0,0,0-4,.81c-1.69.93-2.65,2.65-2.86,5.18h-1Z"/><path class="cls-5" d="M189.25,19.9A12.18,12.18,0,0,1,192.89,29a12.55,12.55,0,1,1-25.09.19,12.55,12.55,0,0,1,3.48-9.13,13.19,13.19,0,0,1,18-.17Zm-3.44,15.77a22.92,22.92,0,0,0,.8-6.66c0-3.76-.57-6.6-1.69-8.51a5.12,5.12,0,0,0-4.57-2.86q-4,0-5.49,4.78a23,23,0,0,0-.78,6.59,22.87,22.87,0,0,0,.79,6.66q1.47,4.71,5.48,4.71T185.81,35.67Z"/><path class="cls-5" d="M194,40a4.1,4.1,0,0,0,2.45-.67,3.51,3.51,0,0,0,.66-2.56V21.11c0-1.36-.26-2.25-.78-2.66a4.83,4.83,0,0,0-2.33-.57V17h11.37a18.41,18.41,0,0,1,5.73.74c2.83,1,4.25,2.81,4.25,5.41a5.35,5.35,0,0,1-2.23,4.54,8.76,8.76,0,0,1-3.59,1.58l7.51,10.06a1.43,1.43,0,0,0,.62.55,2.9,2.9,0,0,0,.81.16v.85h-7.37l-8.25-11h0v6.92a3.68,3.68,0,0,0,.62,2.51A3.7,3.7,0,0,0,206,40v.9H194Zm13.8-12.26c1-.62,1.49-2,1.49-4.27a7.67,7.67,0,0,0-.57-3.25,3.64,3.64,0,0,0-3.59-2,3.18,3.18,0,0,0-1.85.36,1.37,1.37,0,0,0-.44,1.16v9A10.22,10.22,0,0,0,207.81,27.71Z"/><path class="cls-5" d="M218.83,40a5.31,5.31,0,0,0,2.15-.36,2.16,2.16,0,0,0,1.07-2.13V20.36a2.15,2.15,0,0,0-1-2.09,6,6,0,0,0-2.2-.39V17h12.35v.9a6.37,6.37,0,0,0-2.28.38,2.12,2.12,0,0,0-1,2.1V37.48a2.12,2.12,0,0,0,.83,2,4.92,4.92,0,0,0,2.48.5v.9H218.83Z"/><path class="cls-5" d="M231.94,40A2.67,2.67,0,0,0,234,38.81a16.08,16.08,0,0,0,1.43-3l7.85-19.34h1l7.88,18.57a25.53,25.53,0,0,0,2,4A2.08,2.08,0,0,0,256,40v.9H244.56V40a8.31,8.31,0,0,0,2.27-.29q.54-.23.54-1.14a4.59,4.59,0,0,0-.27-1.26c-.12-.34-.28-.74-.47-1.21l-.9-2.14h-7.94l-1,2.74a7,7,0,0,0-.46,2c0,.5.34.87,1,1.1a6.64,6.64,0,0,0,1.82.21v.9h-7.22Zm13.27-7.44-3.4-8.18h-.3l-3.19,8.18Z"/><path class="cls-5" d="M82.3,60.39A3,3,0,0,0,83.72,60c.22-.19.33-.65.33-1.4V49.74a2.1,2.1,0,0,0-.32-1.38A2.35,2.35,0,0,0,82.3,48v-.37H92.88l.06,2.84h-.5a2.83,2.83,0,0,0-.76-1.7,4.2,4.2,0,0,0-2.25-.39H86.71q-.43,0-.54.15a1,1,0,0,0-.1.53v4.44h3.07a2.38,2.38,0,0,0,1.63-.38,3.27,3.27,0,0,0,.56-1.53h.47v4.6h-.47a3.36,3.36,0,0,0-.57-1.53,2.36,2.36,0,0,0-1.62-.37H86.07v4.92c0,.4.13.63.38.7a12.56,12.56,0,0,0,2.24.11,7.67,7.67,0,0,0,3-.44,4.07,4.07,0,0,0,1.73-2.15H94l-.9,3.37H82.3Z"/><path class="cls-5" d="M94.8,60.39a2.34,2.34,0,0,0,1.58-.56,3.61,3.61,0,0,0,.35-2V49.05l-.27-.32a2.21,2.21,0,0,0-.74-.63A2.86,2.86,0,0,0,94.8,48v-.37h3.4l7.68,9.52V50.5a3.24,3.24,0,0,0-.48-2.13A2.49,2.49,0,0,0,104,48v-.37h4.68V48a2.31,2.31,0,0,0-1.52.55,3.45,3.45,0,0,0-.37,2V61h-.34L97.61,50.08v7.74A3.24,3.24,0,0,0,98.09,60a2.36,2.36,0,0,0,1.38.44v.37H94.8Z"/><path class="cls-5" d="M118.93,47.67a8.49,8.49,0,0,0,1.29.32.88.88,0,0,0,.6-.16,1.25,1.25,0,0,0,.31-.48h.44l.15,4.19h-.45A7.72,7.72,0,0,0,120,49.38a4,4,0,0,0-3.06-1.24,4.65,4.65,0,0,0-3.37,1.45q-1.45,1.45-1.45,4.79a6,6,0,0,0,1.45,4.3,4.7,4.7,0,0,0,3.58,1.54,7,7,0,0,0,.84-.06,5.37,5.37,0,0,0,.92-.22,2.68,2.68,0,0,0,.89-.4A.65.65,0,0,0,120,59V55.87c0-.77-.1-1.25-.32-1.44a2.68,2.68,0,0,0-1.43-.35v-.37h5.08v.37a1.87,1.87,0,0,0-1,.24,1.55,1.55,0,0,0-.41,1.29v3.91c0,.24-.57.55-1.72.94a10.17,10.17,0,0,1-3.3.58,7.38,7.38,0,0,1-4.92-1.7,6.27,6.27,0,0,1-2.2-5,6.89,6.89,0,0,1,1.76-4.76,6.51,6.51,0,0,1,5.13-2.19A8.3,8.3,0,0,1,118.93,47.67Z"/><path class="cls-5" d="M124.23,60.39a3,3,0,0,0,1.42-.39c.22-.19.33-.65.33-1.4V49.74a2.1,2.1,0,0,0-.32-1.38,2.33,2.33,0,0,0-1.43-.4v-.37h5.62V48a2.67,2.67,0,0,0-1.47.36,1.64,1.64,0,0,0-.38,1.29v9.56a1.06,1.06,0,0,0,.11.52.63.63,0,0,0,.5.24l.47,0H130a9.53,9.53,0,0,0,3.59-.44,4.52,4.52,0,0,0,1.81-2.23h.51l-1,3.45H124.23Z"/><path class="cls-5" d="M136.83,60.39A3.38,3.38,0,0,0,138.4,60c.24-.19.36-.66.36-1.43V49.74a1.93,1.93,0,0,0-.36-1.41,2.74,2.74,0,0,0-1.57-.37v-.37h5.89V48a2.78,2.78,0,0,0-1.58.37,1.93,1.93,0,0,0-.36,1.41V58.6c0,.77.12,1.24.36,1.43a3.43,3.43,0,0,0,1.58.36v.37h-5.89Z"/><path class="cls-5" d="M144.76,56.75a7,7,0,0,0,1.18,2.14,3.7,3.7,0,0,0,2.94,1.39,2.43,2.43,0,0,0,1.65-.6,2.11,2.11,0,0,0,.69-1.68,2.33,2.33,0,0,0-.7-1.69,11.09,11.09,0,0,0-1.92-1.37l-1.7-1.06a6.14,6.14,0,0,1-1.22-1,3,3,0,0,1-.84-2.08,3.37,3.37,0,0,1,1-2.5,3.57,3.57,0,0,1,2.65-1,5.26,5.26,0,0,1,1.64.34,8,8,0,0,0,1.09.34.6.6,0,0,0,.51-.18,1.16,1.16,0,0,0,.22-.5h.41l.44,4.24h-.48a4.46,4.46,0,0,0-1.56-2.67,3.65,3.65,0,0,0-2.12-.76,2.24,2.24,0,0,0-1.43.48,1.63,1.63,0,0,0-.61,1.34,2,2,0,0,0,.47,1.31,5.84,5.84,0,0,0,1.45,1.16l1.74,1.08a9.06,9.06,0,0,1,2.32,1.85,3.23,3.23,0,0,1,.66,2A3.34,3.34,0,0,1,152.06,60a4.35,4.35,0,0,1-3,1.05,5.93,5.93,0,0,1-1.93-.35,7.93,7.93,0,0,0-1.16-.35.48.48,0,0,0-.47.22,1.42,1.42,0,0,0-.16.45h-.44l-.59-4.24Z"/><path class="cls-5" d="M155.21,60.39a2.6,2.6,0,0,0,1.45-.43,2.61,2.61,0,0,0,.3-1.59V49.74a2,2,0,0,0-.33-1.39,2.43,2.43,0,0,0-1.42-.39v-.37h5.52V48a2.43,2.43,0,0,0-1.42.39,2,2,0,0,0-.33,1.39v3.88h6V49.74a2.05,2.05,0,0,0-.32-1.39,2.41,2.41,0,0,0-1.43-.39v-.37h5.53V48a2.44,2.44,0,0,0-1.43.39,2.05,2.05,0,0,0-.32,1.39V58.6a2,2,0,0,0,.32,1.39,2.67,2.67,0,0,0,1.43.4v.37h-5.53v-.37a2.54,2.54,0,0,0,1.47-.43,2.73,2.73,0,0,0,.28-1.59V54.5h-6v4.1a2,2,0,0,0,.33,1.39,2.49,2.49,0,0,0,1.42.4v.37h-5.52Z"/><path class="cls-5" d="M176.2,56.75a7.24,7.24,0,0,0,1.18,2.14,3.7,3.7,0,0,0,2.94,1.39,2.43,2.43,0,0,0,1.65-.6,2.11,2.11,0,0,0,.69-1.68,2.36,2.36,0,0,0-.69-1.69A11.74,11.74,0,0,0,180,54.94l-1.69-1.06a6.23,6.23,0,0,1-1.23-1,3,3,0,0,1-.84-2.08,3.37,3.37,0,0,1,1-2.5,3.58,3.58,0,0,1,2.65-1,5.21,5.21,0,0,1,1.64.34,8,8,0,0,0,1.09.34.6.6,0,0,0,.51-.18,1.16,1.16,0,0,0,.22-.5h.41l.44,4.24h-.48a4.46,4.46,0,0,0-1.56-2.67,3.62,3.62,0,0,0-2.12-.76,2.24,2.24,0,0,0-1.43.48,1.62,1.62,0,0,0-.6,1.34,1.94,1.94,0,0,0,.46,1.31A5.84,5.84,0,0,0,180,52.4l1.75,1.08A9.16,9.16,0,0,1,184,55.33a3.24,3.24,0,0,1,.67,2A3.35,3.35,0,0,1,183.5,60a4.35,4.35,0,0,1-3,1.05,5.93,5.93,0,0,1-1.93-.35,7.56,7.56,0,0,0-1.16-.35.48.48,0,0,0-.47.22,1.42,1.42,0,0,0-.16.45h-.43l-.6-4.24Z"/><path class="cls-5" d="M195.91,47.67a9.2,9.2,0,0,0,1.28.32,1,1,0,0,0,.53-.15.83.83,0,0,0,.35-.49h.42l.18,4.48h-.46a6.43,6.43,0,0,0-1-2.15,4,4,0,0,0-3.3-1.54,4.21,4.21,0,0,0-3.42,1.65,7.12,7.12,0,0,0-1.32,4.55,6.23,6.23,0,0,0,1.39,4.26,4.5,4.5,0,0,0,3.53,1.59,5.71,5.71,0,0,0,2.85-.74,8.52,8.52,0,0,0,1.65-1.27l.36.37A6.48,6.48,0,0,1,197.28,60a7.07,7.07,0,0,1-8.72-1,6.75,6.75,0,0,1-1.74-4.74,6.89,6.89,0,0,1,1.84-4.88,6.58,6.58,0,0,1,5-2.07A8.33,8.33,0,0,1,195.91,47.67Z"/><path class="cls-5" d="M200.27,60.39a2.6,2.6,0,0,0,1.45-.43,2.61,2.61,0,0,0,.3-1.59V49.74a2,2,0,0,0-.33-1.39,2.43,2.43,0,0,0-1.42-.39v-.37h5.52V48a2.4,2.4,0,0,0-1.42.39,2,2,0,0,0-.33,1.39v3.88h6V49.74a2.05,2.05,0,0,0-.32-1.39,2.41,2.41,0,0,0-1.43-.39v-.37h5.52V48a2.43,2.43,0,0,0-1.42.39,2,2,0,0,0-.33,1.39V58.6a2,2,0,0,0,.33,1.39,2.66,2.66,0,0,0,1.42.4v.37h-5.52v-.37A2.57,2.57,0,0,0,209.8,60a2.73,2.73,0,0,0,.28-1.59V54.5h-6v4.1a2,2,0,0,0,.33,1.39,2.46,2.46,0,0,0,1.42.4v.37h-5.52Z"/><path class="cls-5" d="M217.25,49.06a6.7,6.7,0,0,1,9.06,0,6.79,6.79,0,0,1,2,5.11,6.7,6.7,0,0,1-2.06,5.15A6.33,6.33,0,0,1,221.78,61a6.2,6.2,0,0,1-4.65-1.9,6.81,6.81,0,0,1-1.88-5A6.8,6.8,0,0,1,217.25,49.06Zm1.49,9.76a3.83,3.83,0,0,0,6,0c.84-1,1.25-2.54,1.25-4.68s-.42-3.74-1.26-4.71a3.9,3.9,0,0,0-3-1.45,3.79,3.79,0,0,0-3,1.51,7.2,7.2,0,0,0-1.24,4.65A7.25,7.25,0,0,0,218.74,58.82Z"/><path class="cls-5" d="M232,49.06a6.68,6.68,0,0,1,9.05,0,6.76,6.76,0,0,1,2,5.11A6.67,6.67,0,0,1,241,59.33,6.33,6.33,0,0,1,236.49,61a6.2,6.2,0,0,1-4.65-1.9,6.81,6.81,0,0,1-1.87-5A6.8,6.8,0,0,1,232,49.06Zm1.49,9.76a3.8,3.8,0,0,0,3,1.5,3.86,3.86,0,0,0,3-1.46,7.18,7.18,0,0,0,1.25-4.68c0-2.17-.42-3.74-1.27-4.71a3.87,3.87,0,0,0-3-1.45,3.79,3.79,0,0,0-3,1.51,7.26,7.26,0,0,0-1.24,4.65A7.19,7.19,0,0,0,233.46,58.82Z"/><path class="cls-5" d="M244.31,60.39a3,3,0,0,0,1.43-.39c.22-.19.32-.65.32-1.4V49.74a2,2,0,0,0-.32-1.38,2.33,2.33,0,0,0-1.43-.4v-.37h5.62V48a2.67,2.67,0,0,0-1.47.36,1.64,1.64,0,0,0-.37,1.29v9.56a1,1,0,0,0,.11.52.61.61,0,0,0,.49.24l.47,0h.93a9.53,9.53,0,0,0,3.59-.44,4.47,4.47,0,0,0,1.81-2.23H256l-1,3.45H244.31Z"/></g></g></svg>